<?xml version="1.0" encoding="UTF-8" standalone="no"?>
<!--
<div>Icons made by <a href="http://www.freepik.com" title="Freepik">Freepik</a> from <a href="http://www.flaticon.com" title="Flaticon">www.flaticon.com</a>  is licensed by <a href="http://creativecommons.org/licenses/by/3.0/" title="Creative Commons BY 3.0">CC BY 3.0</a></div>
-->
<svg version="1.1" id="Capa_1" xmlns="http://www.w3.org/2000/svg" xmlns:xlink="http://www.w3.org/1999/xlink" x="0px" y="0px"
	 width="187.93px" height="187.93px" viewBox="0 0 187.93 187.93" style="enable-background:new 0 0 187.93 187.93;"
	 xml:space="preserve">
<g>
	<g>
		<path d="M141.684,165.187c-42.994,1.355-85.948-2.822-128.907-2.128c11.594-7.866,28.75-16.773,35.019-28.551
			c15.597-13.877,26.311-31.527,37.098-49.272c8.152-13.412,20.021-27.514,21.949-43.641c2.511-20.998-8.625-39.746-29.989-24.863
			c-0.488,0.34-0.841,0.741-1.101,1.17c-13.463,8.065-23.458,24.275-32.366,36.71c-10.401,14.521-21.472,29.97-28.224,46.63
			c-0.623,0.192-1.156,0.65-1.342,1.495C9.278,123.428,2.729,143.854,0.026,164.89c-0.079,0.615,0.031,1.126,0.211,1.59
			c-0.209,1.993,1.012,4.203,3.667,4.488c34.493,3.697,69.746,4.577,104.421,4.577c3.894,0,61.619-2.973,62.53-0.961
			c1.501,3.312,6.318,2.042,7.237-0.946C182.318,159.904,147.229,165.013,141.684,165.187z M80.098,22.992
			c0.117-0.055,0.226-0.053,0.344-0.123c15.715-9.264,19.597,2.763,18.973,15.22c-0.173,3.464-0.979,6.658-2.124,9.712
			c-8.19-5.334-16.229-10.89-24.391-16.265C75.314,28.718,77.724,25.885,80.098,22.992z M69.872,35.065
			c7.862,6.683,16.005,13.121,24.728,18.647c-0.529,0.993-1.132,1.958-1.702,2.934c-8.927-5.984-18.233-10.635-26.624-17.394
			C67.475,37.858,68.67,36.461,69.872,35.065z M18.109,111.487c5.603,0.696,9.969,4.447,7.959,10.776
			c-0.656,2.065,1.091,4.026,3.118,4.092c4.435,0.144,7.636,1.273,9.764,4.906c-5.065,5.195-10.543,9.699-16.181,14.034
			c-0.374-0.493-0.848-0.925-1.501-1.165c-0.993-0.366-1.886-0.908-2.729-1.528c-0.39-0.357-0.768-0.729-1.136-1.101
			c-0.327-0.33-0.697-0.558-1.084-0.72c-0.06-0.052-0.122-0.104-0.183-0.155c-1.011-0.868-1.779-1.621-2.849-1.892
			C15.5,129.706,17.563,120.659,18.109,111.487z"/>
		<path d="M183.068,144.464c-42.713-4.249-88.498-8.037-130.792,1.083c-4.498,0.97-3.535,8.407,1.091,8.058
			c41.611-3.146,82.026-1.702,123.498,0.597c0.523,0.26,1.104,0.443,1.806,0.421c1.465-0.059,2.931-0.086,4.397-0.082
			C189.686,154.475,189.412,145.095,183.068,144.464z"/>
	</g>
</g>
<g>
</g>
<g>
</g>
<g>
</g>
<g>
</g>
<g>
</g>
<g>
</g>
<g>
</g>
<g>
</g>
<g>
</g>
<g>
</g>
<g>
</g>
<g>
</g>
<g>
</g>
<g>
</g>
<g>
</g>
</svg>